<mxfile host="app.diagrams.net" modified="2021-04-16T21:18:23.990Z" agent="5.0 (Windows NT 10.0; Win64; x64) AppleWebKit/537.36 (KHTML, like Gecko) Chrome/89.0.4389.128 Safari/537.36" etag="uIz0ioZFnbtG8CSEOpeZ" version="14.6.0" type="github">
  <diagram id="tc6vuVGwCVXS1qEcOIbm" name="Page-1">
    <mxGraphModel dx="1422" dy="794" grid="0" gridSize="10" guides="1" tooltips="1" connect="1" arrows="1" fold="1" page="0" pageScale="1" pageWidth="850" pageHeight="1100" math="0" shadow="0">
      <root>
        <mxCell id="0" />
        <mxCell id="1" parent="0" />
        <mxCell id="mSUhU7dha5wKDlsOF0BO-2" value="" style="fillColor=none;dashed=1;verticalAlign=top;fontStyle=0;fontColor=#147EBA;strokeColor=#B5739D;" parent="1" vertex="1">
          <mxGeometry x="140" y="272" width="967" height="100" as="geometry" />
        </mxCell>
        <mxCell id="vAZ1_Js3ERbQowNeJx3b-1" value="Users" style="html=1;verticalLabelPosition=bottom;align=center;labelBackgroundColor=#ffffff;verticalAlign=top;strokeWidth=2;strokeColor=#0080F0;shadow=0;dashed=0;shape=mxgraph.ios7.icons.user;" parent="1" vertex="1">
          <mxGeometry x="552" y="20" width="30" height="30" as="geometry" />
        </mxCell>
        <mxCell id="vAZ1_Js3ERbQowNeJx3b-2" value="Clients" style="aspect=fixed;pointerEvents=1;shadow=0;dashed=0;html=1;strokeColor=none;labelPosition=center;verticalLabelPosition=bottom;verticalAlign=top;align=center;fillColor=#00188D;shape=mxgraph.mscae.enterprise.workstation_client" parent="1" vertex="1">
          <mxGeometry x="632" y="15" width="40" height="40" as="geometry" />
        </mxCell>
        <mxCell id="vAZ1_Js3ERbQowNeJx3b-3" value="PCF GTM LB" style="outlineConnect=0;fontColor=#232F3E;gradientColor=none;fillColor=#5A30B5;strokeColor=none;dashed=0;verticalLabelPosition=bottom;verticalAlign=top;align=center;html=1;fontSize=12;fontStyle=0;aspect=fixed;pointerEvents=1;shape=mxgraph.aws4.application_load_balancer;" parent="1" vertex="1">
          <mxGeometry x="582" y="132" width="61" height="61" as="geometry" />
        </mxCell>
        <mxCell id="vAZ1_Js3ERbQowNeJx3b-4" value="&lt;b&gt;PCF LTM in S3B&lt;/b&gt;" style="outlineConnect=0;dashed=0;verticalLabelPosition=bottom;verticalAlign=top;align=center;html=1;shape=mxgraph.aws3.application_load_balancer;gradientColor=none;fillColor=#A680B8;" parent="1" vertex="1">
          <mxGeometry x="586" y="286" width="60" height="60" as="geometry" />
        </mxCell>
        <mxCell id="vAZ1_Js3ERbQowNeJx3b-5" value="&lt;b&gt;PCF LTM in DRM&lt;/b&gt;" style="outlineConnect=0;dashed=0;verticalLabelPosition=bottom;verticalAlign=top;align=center;html=1;shape=mxgraph.aws3.application_load_balancer;gradientColor=none;fillColor=#9AC7BF;" parent="1" vertex="1">
          <mxGeometry x="962" y="286" width="60" height="60" as="geometry" />
        </mxCell>
        <mxCell id="vAZ1_Js3ERbQowNeJx3b-6" value="PC1 PCF" style="fillColor=#ffcccc;verticalAlign=top;fontStyle=3;strokeColor=#36393d;fontSize=15;fontColor=#00994D;" parent="1" vertex="1">
          <mxGeometry x="34" y="422" width="375" height="431" as="geometry" />
        </mxCell>
        <mxCell id="vAZ1_Js3ERbQowNeJx3b-20" value="" style="group" parent="1" vertex="1" connectable="0">
          <mxGeometry x="54" y="468" width="108" height="368" as="geometry" />
        </mxCell>
        <mxCell id="vAZ1_Js3ERbQowNeJx3b-7" value="AZ 1" style="fillColor=none;strokeColor=#147EBA;dashed=1;verticalAlign=top;fontStyle=1;fontColor=#147EBA;" parent="vAZ1_Js3ERbQowNeJx3b-20" vertex="1">
          <mxGeometry width="108" height="368" as="geometry" />
        </mxCell>
        <mxCell id="vAZ1_Js3ERbQowNeJx3b-13" value="Diego 1Â " style="fillColor=none;strokeColor=#147EBA;verticalAlign=top;fontStyle=0;fontColor=#147EBA;" parent="vAZ1_Js3ERbQowNeJx3b-20" vertex="1">
          <mxGeometry x="13.25" y="93" width="81.5" height="107" as="geometry" />
        </mxCell>
        <mxCell id="vAZ1_Js3ERbQowNeJx3b-14" value="Diego n" style="fillColor=none;strokeColor=#147EBA;verticalAlign=top;fontStyle=0;fontColor=#147EBA;" parent="vAZ1_Js3ERbQowNeJx3b-20" vertex="1">
          <mxGeometry x="13.25" y="214" width="81.5" height="107" as="geometry" />
        </mxCell>
        <mxCell id="vAZ1_Js3ERbQowNeJx3b-15" value="" style="outlineConnect=0;dashed=0;verticalLabelPosition=bottom;verticalAlign=top;align=center;html=1;shape=mxgraph.aws3.android;fillColor=#8CC64F;gradientColor=none;strokeColor=#330000;fontColor=#00994D;" parent="vAZ1_Js3ERbQowNeJx3b-20" vertex="1">
          <mxGeometry x="19" y="130" width="28" height="44" as="geometry" />
        </mxCell>
        <mxCell id="vAZ1_Js3ERbQowNeJx3b-16" value="" style="outlineConnect=0;dashed=0;verticalLabelPosition=bottom;verticalAlign=top;align=center;html=1;shape=mxgraph.aws3.android;fillColor=#EE472A;gradientColor=none;strokeColor=#330000;fontColor=#00994D;" parent="vAZ1_Js3ERbQowNeJx3b-20" vertex="1">
          <mxGeometry x="56" y="133" width="30" height="39" as="geometry" />
        </mxCell>
        <mxCell id="vAZ1_Js3ERbQowNeJx3b-17" value="" style="outlineConnect=0;dashed=0;verticalLabelPosition=bottom;verticalAlign=top;align=center;html=1;shape=mxgraph.aws3.android;fillColor=#FFD44F;gradientColor=none;strokeColor=#330000;fontColor=#00994D;" parent="vAZ1_Js3ERbQowNeJx3b-20" vertex="1">
          <mxGeometry x="21" y="246" width="31" height="41" as="geometry" />
        </mxCell>
        <mxCell id="vAZ1_Js3ERbQowNeJx3b-18" value="" style="outlineConnect=0;dashed=0;verticalLabelPosition=bottom;verticalAlign=top;align=center;html=1;shape=mxgraph.aws3.android;fillColor=#115193;gradientColor=none;strokeColor=#330000;fontColor=#00994D;" parent="vAZ1_Js3ERbQowNeJx3b-20" vertex="1">
          <mxGeometry x="58" y="245" width="34" height="43" as="geometry" />
        </mxCell>
        <mxCell id="vAZ1_Js3ERbQowNeJx3b-19" value="&lt;font style=&quot;font-size: 10px&quot;&gt;&lt;b&gt;PCF Router&lt;/b&gt;&lt;/font&gt;" style="outlineConnect=0;fontColor=#232F3E;gradientColor=none;fillColor=#5A30B5;strokeColor=none;dashed=0;verticalLabelPosition=bottom;verticalAlign=top;align=center;html=1;fontSize=12;fontStyle=0;aspect=fixed;pointerEvents=1;shape=mxgraph.aws4.router;" parent="vAZ1_Js3ERbQowNeJx3b-20" vertex="1">
          <mxGeometry x="34" y="34" width="35" height="35" as="geometry" />
        </mxCell>
        <mxCell id="vAZ1_Js3ERbQowNeJx3b-21" value="" style="group" parent="1" vertex="1" connectable="0">
          <mxGeometry x="170" y="468" width="108" height="368" as="geometry" />
        </mxCell>
        <mxCell id="vAZ1_Js3ERbQowNeJx3b-22" value="AZ 2" style="fillColor=none;strokeColor=#147EBA;dashed=1;verticalAlign=top;fontStyle=1;fontColor=#147EBA;" parent="vAZ1_Js3ERbQowNeJx3b-21" vertex="1">
          <mxGeometry width="108" height="368" as="geometry" />
        </mxCell>
        <mxCell id="vAZ1_Js3ERbQowNeJx3b-23" value="Diego 2" style="fillColor=none;strokeColor=#147EBA;verticalAlign=top;fontStyle=0;fontColor=#147EBA;" parent="vAZ1_Js3ERbQowNeJx3b-21" vertex="1">
          <mxGeometry x="13.25" y="93" width="81.5" height="107" as="geometry" />
        </mxCell>
        <mxCell id="vAZ1_Js3ERbQowNeJx3b-24" value="Diego n-1" style="fillColor=none;strokeColor=#147EBA;verticalAlign=top;fontStyle=0;fontColor=#147EBA;" parent="vAZ1_Js3ERbQowNeJx3b-21" vertex="1">
          <mxGeometry x="13.25" y="214" width="81.5" height="107" as="geometry" />
        </mxCell>
        <mxCell id="vAZ1_Js3ERbQowNeJx3b-25" value="" style="outlineConnect=0;dashed=0;verticalLabelPosition=bottom;verticalAlign=top;align=center;html=1;shape=mxgraph.aws3.android;fillColor=#8CC64F;gradientColor=none;strokeColor=#330000;fontColor=#00994D;" parent="vAZ1_Js3ERbQowNeJx3b-21" vertex="1">
          <mxGeometry x="19" y="130" width="28" height="44" as="geometry" />
        </mxCell>
        <mxCell id="vAZ1_Js3ERbQowNeJx3b-26" value="" style="outlineConnect=0;dashed=0;verticalLabelPosition=bottom;verticalAlign=top;align=center;html=1;shape=mxgraph.aws3.android;fillColor=#EE472A;gradientColor=none;strokeColor=#330000;fontColor=#00994D;" parent="vAZ1_Js3ERbQowNeJx3b-21" vertex="1">
          <mxGeometry x="56" y="133" width="30" height="39" as="geometry" />
        </mxCell>
        <mxCell id="vAZ1_Js3ERbQowNeJx3b-27" value="" style="outlineConnect=0;dashed=0;verticalLabelPosition=bottom;verticalAlign=top;align=center;html=1;shape=mxgraph.aws3.android;fillColor=#FFD44F;gradientColor=none;strokeColor=#330000;fontColor=#00994D;" parent="vAZ1_Js3ERbQowNeJx3b-21" vertex="1">
          <mxGeometry x="21" y="246" width="31" height="41" as="geometry" />
        </mxCell>
        <mxCell id="vAZ1_Js3ERbQowNeJx3b-28" value="" style="outlineConnect=0;dashed=0;verticalLabelPosition=bottom;verticalAlign=top;align=center;html=1;shape=mxgraph.aws3.android;fillColor=#115193;gradientColor=none;strokeColor=#330000;fontColor=#00994D;" parent="vAZ1_Js3ERbQowNeJx3b-21" vertex="1">
          <mxGeometry x="58" y="245" width="34" height="43" as="geometry" />
        </mxCell>
        <mxCell id="vAZ1_Js3ERbQowNeJx3b-29" value="&lt;font style=&quot;font-size: 10px&quot;&gt;&lt;b&gt;PCF Router&lt;/b&gt;&lt;/font&gt;" style="outlineConnect=0;fontColor=#232F3E;gradientColor=none;fillColor=#5A30B5;strokeColor=none;dashed=0;verticalLabelPosition=bottom;verticalAlign=top;align=center;html=1;fontSize=12;fontStyle=0;aspect=fixed;pointerEvents=1;shape=mxgraph.aws4.router;" parent="vAZ1_Js3ERbQowNeJx3b-21" vertex="1">
          <mxGeometry x="34" y="34" width="35" height="35" as="geometry" />
        </mxCell>
        <mxCell id="vAZ1_Js3ERbQowNeJx3b-30" value="" style="group" parent="1" vertex="1" connectable="0">
          <mxGeometry x="284" y="467" width="108" height="368" as="geometry" />
        </mxCell>
        <mxCell id="vAZ1_Js3ERbQowNeJx3b-31" value="AZ 3" style="fillColor=none;strokeColor=#147EBA;dashed=1;verticalAlign=top;fontStyle=1;fontColor=#147EBA;" parent="vAZ1_Js3ERbQowNeJx3b-30" vertex="1">
          <mxGeometry width="108" height="368" as="geometry" />
        </mxCell>
        <mxCell id="vAZ1_Js3ERbQowNeJx3b-32" value="Diego 3" style="fillColor=none;strokeColor=#147EBA;verticalAlign=top;fontStyle=0;fontColor=#147EBA;" parent="vAZ1_Js3ERbQowNeJx3b-30" vertex="1">
          <mxGeometry x="13.25" y="93" width="81.5" height="107" as="geometry" />
        </mxCell>
        <mxCell id="vAZ1_Js3ERbQowNeJx3b-33" value="Diego n-2" style="fillColor=none;strokeColor=#147EBA;verticalAlign=top;fontStyle=0;fontColor=#147EBA;" parent="vAZ1_Js3ERbQowNeJx3b-30" vertex="1">
          <mxGeometry x="13.25" y="214" width="81.5" height="107" as="geometry" />
        </mxCell>
        <mxCell id="vAZ1_Js3ERbQowNeJx3b-34" value="" style="outlineConnect=0;dashed=0;verticalLabelPosition=bottom;verticalAlign=top;align=center;html=1;shape=mxgraph.aws3.android;fillColor=#8CC64F;gradientColor=none;strokeColor=#330000;fontColor=#00994D;" parent="vAZ1_Js3ERbQowNeJx3b-30" vertex="1">
          <mxGeometry x="19" y="130" width="28" height="44" as="geometry" />
        </mxCell>
        <mxCell id="vAZ1_Js3ERbQowNeJx3b-35" value="" style="outlineConnect=0;dashed=0;verticalLabelPosition=bottom;verticalAlign=top;align=center;html=1;shape=mxgraph.aws3.android;fillColor=#EE472A;gradientColor=none;strokeColor=#330000;fontColor=#00994D;" parent="vAZ1_Js3ERbQowNeJx3b-30" vertex="1">
          <mxGeometry x="56" y="133" width="30" height="39" as="geometry" />
        </mxCell>
        <mxCell id="vAZ1_Js3ERbQowNeJx3b-36" value="" style="outlineConnect=0;dashed=0;verticalLabelPosition=bottom;verticalAlign=top;align=center;html=1;shape=mxgraph.aws3.android;fillColor=#FFD44F;gradientColor=none;strokeColor=#330000;fontColor=#00994D;" parent="vAZ1_Js3ERbQowNeJx3b-30" vertex="1">
          <mxGeometry x="21" y="246" width="31" height="41" as="geometry" />
        </mxCell>
        <mxCell id="vAZ1_Js3ERbQowNeJx3b-37" value="" style="outlineConnect=0;dashed=0;verticalLabelPosition=bottom;verticalAlign=top;align=center;html=1;shape=mxgraph.aws3.android;fillColor=#115193;gradientColor=none;strokeColor=#330000;fontColor=#00994D;" parent="vAZ1_Js3ERbQowNeJx3b-30" vertex="1">
          <mxGeometry x="58" y="245" width="34" height="43" as="geometry" />
        </mxCell>
        <mxCell id="vAZ1_Js3ERbQowNeJx3b-38" value="&lt;font style=&quot;font-size: 10px&quot;&gt;&lt;b&gt;PCF Router&lt;/b&gt;&lt;/font&gt;" style="outlineConnect=0;fontColor=#232F3E;gradientColor=none;fillColor=#5A30B5;strokeColor=none;dashed=0;verticalLabelPosition=bottom;verticalAlign=top;align=center;html=1;fontSize=12;fontStyle=0;aspect=fixed;pointerEvents=1;shape=mxgraph.aws4.router;" parent="vAZ1_Js3ERbQowNeJx3b-30" vertex="1">
          <mxGeometry x="34" y="34" width="35" height="35" as="geometry" />
        </mxCell>
        <mxCell id="vAZ1_Js3ERbQowNeJx3b-39" value="S3B PCF" style="verticalAlign=top;fontStyle=3;fontSize=15;fillColor=#eeeeee;strokeColor=#36393d;fontColor=#00CCCC;" parent="1" vertex="1">
          <mxGeometry x="435" y="424" width="375" height="431" as="geometry" />
        </mxCell>
        <mxCell id="vAZ1_Js3ERbQowNeJx3b-40" value="" style="group" parent="1" vertex="1" connectable="0">
          <mxGeometry x="455" y="469" width="108" height="368" as="geometry" />
        </mxCell>
        <mxCell id="vAZ1_Js3ERbQowNeJx3b-41" value="AZ 1" style="fillColor=none;strokeColor=#147EBA;dashed=1;verticalAlign=top;fontStyle=1;fontColor=#147EBA;" parent="vAZ1_Js3ERbQowNeJx3b-40" vertex="1">
          <mxGeometry width="108" height="368" as="geometry" />
        </mxCell>
        <mxCell id="vAZ1_Js3ERbQowNeJx3b-42" value="Diego 1Â " style="fillColor=none;strokeColor=#147EBA;verticalAlign=top;fontStyle=0;fontColor=#147EBA;" parent="vAZ1_Js3ERbQowNeJx3b-40" vertex="1">
          <mxGeometry x="13.25" y="93" width="81.5" height="107" as="geometry" />
        </mxCell>
        <mxCell id="vAZ1_Js3ERbQowNeJx3b-43" value="Diego n" style="fillColor=none;strokeColor=#147EBA;verticalAlign=top;fontStyle=0;fontColor=#147EBA;" parent="vAZ1_Js3ERbQowNeJx3b-40" vertex="1">
          <mxGeometry x="13.25" y="214" width="81.5" height="107" as="geometry" />
        </mxCell>
        <mxCell id="vAZ1_Js3ERbQowNeJx3b-44" value="" style="outlineConnect=0;dashed=0;verticalLabelPosition=bottom;verticalAlign=top;align=center;html=1;shape=mxgraph.aws3.android;fillColor=#8CC64F;gradientColor=none;strokeColor=#330000;fontColor=#00994D;" parent="vAZ1_Js3ERbQowNeJx3b-40" vertex="1">
          <mxGeometry x="19" y="130" width="28" height="44" as="geometry" />
        </mxCell>
        <mxCell id="vAZ1_Js3ERbQowNeJx3b-45" value="" style="outlineConnect=0;dashed=0;verticalLabelPosition=bottom;verticalAlign=top;align=center;html=1;shape=mxgraph.aws3.android;fillColor=#EE472A;gradientColor=none;strokeColor=#330000;fontColor=#00994D;" parent="vAZ1_Js3ERbQowNeJx3b-40" vertex="1">
          <mxGeometry x="56" y="133" width="30" height="39" as="geometry" />
        </mxCell>
        <mxCell id="vAZ1_Js3ERbQowNeJx3b-46" value="" style="outlineConnect=0;dashed=0;verticalLabelPosition=bottom;verticalAlign=top;align=center;html=1;shape=mxgraph.aws3.android;fillColor=#FFD44F;gradientColor=none;strokeColor=#330000;fontColor=#00994D;" parent="vAZ1_Js3ERbQowNeJx3b-40" vertex="1">
          <mxGeometry x="21" y="246" width="31" height="41" as="geometry" />
        </mxCell>
        <mxCell id="vAZ1_Js3ERbQowNeJx3b-47" value="" style="outlineConnect=0;dashed=0;verticalLabelPosition=bottom;verticalAlign=top;align=center;html=1;shape=mxgraph.aws3.android;fillColor=#115193;gradientColor=none;strokeColor=#330000;fontColor=#00994D;" parent="vAZ1_Js3ERbQowNeJx3b-40" vertex="1">
          <mxGeometry x="58" y="245" width="34" height="43" as="geometry" />
        </mxCell>
        <mxCell id="vAZ1_Js3ERbQowNeJx3b-48" value="&lt;font style=&quot;font-size: 10px&quot;&gt;&lt;b&gt;PCF Router&lt;/b&gt;&lt;/font&gt;" style="outlineConnect=0;fontColor=#232F3E;gradientColor=none;fillColor=#5A30B5;strokeColor=none;dashed=0;verticalLabelPosition=bottom;verticalAlign=top;align=center;html=1;fontSize=12;fontStyle=0;aspect=fixed;pointerEvents=1;shape=mxgraph.aws4.router;" parent="vAZ1_Js3ERbQowNeJx3b-40" vertex="1">
          <mxGeometry x="34" y="34" width="35" height="35" as="geometry" />
        </mxCell>
        <mxCell id="vAZ1_Js3ERbQowNeJx3b-49" value="" style="group" parent="1" vertex="1" connectable="0">
          <mxGeometry x="571" y="469" width="108" height="368" as="geometry" />
        </mxCell>
        <mxCell id="vAZ1_Js3ERbQowNeJx3b-50" value="AZ 2" style="fillColor=none;strokeColor=#147EBA;dashed=1;verticalAlign=top;fontStyle=1;fontColor=#147EBA;" parent="vAZ1_Js3ERbQowNeJx3b-49" vertex="1">
          <mxGeometry width="108" height="368" as="geometry" />
        </mxCell>
        <mxCell id="vAZ1_Js3ERbQowNeJx3b-51" value="Diego 2Â " style="fillColor=none;strokeColor=#147EBA;verticalAlign=top;fontStyle=0;fontColor=#147EBA;" parent="vAZ1_Js3ERbQowNeJx3b-49" vertex="1">
          <mxGeometry x="13.25" y="93" width="81.5" height="107" as="geometry" />
        </mxCell>
        <mxCell id="vAZ1_Js3ERbQowNeJx3b-52" value="Diego n-1" style="fillColor=none;strokeColor=#147EBA;verticalAlign=top;fontStyle=0;fontColor=#147EBA;" parent="vAZ1_Js3ERbQowNeJx3b-49" vertex="1">
          <mxGeometry x="13.25" y="214" width="81.5" height="107" as="geometry" />
        </mxCell>
        <mxCell id="vAZ1_Js3ERbQowNeJx3b-53" value="" style="outlineConnect=0;dashed=0;verticalLabelPosition=bottom;verticalAlign=top;align=center;html=1;shape=mxgraph.aws3.android;fillColor=#8CC64F;gradientColor=none;strokeColor=#330000;fontColor=#00994D;" parent="vAZ1_Js3ERbQowNeJx3b-49" vertex="1">
          <mxGeometry x="19" y="130" width="28" height="44" as="geometry" />
        </mxCell>
        <mxCell id="vAZ1_Js3ERbQowNeJx3b-54" value="" style="outlineConnect=0;dashed=0;verticalLabelPosition=bottom;verticalAlign=top;align=center;html=1;shape=mxgraph.aws3.android;fillColor=#EE472A;gradientColor=none;strokeColor=#330000;fontColor=#00994D;" parent="vAZ1_Js3ERbQowNeJx3b-49" vertex="1">
          <mxGeometry x="56" y="133" width="30" height="39" as="geometry" />
        </mxCell>
        <mxCell id="vAZ1_Js3ERbQowNeJx3b-55" value="" style="outlineConnect=0;dashed=0;verticalLabelPosition=bottom;verticalAlign=top;align=center;html=1;shape=mxgraph.aws3.android;fillColor=#FFD44F;gradientColor=none;strokeColor=#330000;fontColor=#00994D;" parent="vAZ1_Js3ERbQowNeJx3b-49" vertex="1">
          <mxGeometry x="21" y="246" width="31" height="41" as="geometry" />
        </mxCell>
        <mxCell id="vAZ1_Js3ERbQowNeJx3b-56" value="" style="outlineConnect=0;dashed=0;verticalLabelPosition=bottom;verticalAlign=top;align=center;html=1;shape=mxgraph.aws3.android;fillColor=#115193;gradientColor=none;strokeColor=#330000;fontColor=#00994D;" parent="vAZ1_Js3ERbQowNeJx3b-49" vertex="1">
          <mxGeometry x="58" y="245" width="34" height="43" as="geometry" />
        </mxCell>
        <mxCell id="vAZ1_Js3ERbQowNeJx3b-57" value="&lt;font style=&quot;font-size: 10px&quot;&gt;&lt;b&gt;PCF Router&lt;/b&gt;&lt;/font&gt;" style="outlineConnect=0;fontColor=#232F3E;gradientColor=none;fillColor=#5A30B5;strokeColor=none;dashed=0;verticalLabelPosition=bottom;verticalAlign=top;align=center;html=1;fontSize=12;fontStyle=0;aspect=fixed;pointerEvents=1;shape=mxgraph.aws4.router;" parent="vAZ1_Js3ERbQowNeJx3b-49" vertex="1">
          <mxGeometry x="34" y="34" width="35" height="35" as="geometry" />
        </mxCell>
        <mxCell id="vAZ1_Js3ERbQowNeJx3b-58" value="" style="group" parent="1" vertex="1" connectable="0">
          <mxGeometry x="685" y="468" width="108" height="368" as="geometry" />
        </mxCell>
        <mxCell id="vAZ1_Js3ERbQowNeJx3b-59" value="AZ 3" style="fillColor=none;strokeColor=#147EBA;dashed=1;verticalAlign=top;fontStyle=1;fontColor=#147EBA;" parent="vAZ1_Js3ERbQowNeJx3b-58" vertex="1">
          <mxGeometry width="108" height="368" as="geometry" />
        </mxCell>
        <mxCell id="vAZ1_Js3ERbQowNeJx3b-60" value="Diego 13" style="fillColor=none;strokeColor=#147EBA;verticalAlign=top;fontStyle=0;fontColor=#147EBA;" parent="vAZ1_Js3ERbQowNeJx3b-58" vertex="1">
          <mxGeometry x="13.25" y="93" width="81.5" height="107" as="geometry" />
        </mxCell>
        <mxCell id="vAZ1_Js3ERbQowNeJx3b-61" value="Diego n-2" style="fillColor=none;strokeColor=#147EBA;verticalAlign=top;fontStyle=0;fontColor=#147EBA;" parent="vAZ1_Js3ERbQowNeJx3b-58" vertex="1">
          <mxGeometry x="13.25" y="214" width="81.5" height="107" as="geometry" />
        </mxCell>
        <mxCell id="vAZ1_Js3ERbQowNeJx3b-62" value="" style="outlineConnect=0;dashed=0;verticalLabelPosition=bottom;verticalAlign=top;align=center;html=1;shape=mxgraph.aws3.android;fillColor=#8CC64F;gradientColor=none;strokeColor=#330000;fontColor=#00994D;" parent="vAZ1_Js3ERbQowNeJx3b-58" vertex="1">
          <mxGeometry x="19" y="130" width="28" height="44" as="geometry" />
        </mxCell>
        <mxCell id="vAZ1_Js3ERbQowNeJx3b-63" value="" style="outlineConnect=0;dashed=0;verticalLabelPosition=bottom;verticalAlign=top;align=center;html=1;shape=mxgraph.aws3.android;fillColor=#EE472A;gradientColor=none;strokeColor=#330000;fontColor=#00994D;" parent="vAZ1_Js3ERbQowNeJx3b-58" vertex="1">
          <mxGeometry x="56" y="133" width="30" height="39" as="geometry" />
        </mxCell>
        <mxCell id="vAZ1_Js3ERbQowNeJx3b-64" value="" style="outlineConnect=0;dashed=0;verticalLabelPosition=bottom;verticalAlign=top;align=center;html=1;shape=mxgraph.aws3.android;fillColor=#FFD44F;gradientColor=none;strokeColor=#330000;fontColor=#00994D;" parent="vAZ1_Js3ERbQowNeJx3b-58" vertex="1">
          <mxGeometry x="21" y="246" width="31" height="41" as="geometry" />
        </mxCell>
        <mxCell id="vAZ1_Js3ERbQowNeJx3b-65" value="" style="outlineConnect=0;dashed=0;verticalLabelPosition=bottom;verticalAlign=top;align=center;html=1;shape=mxgraph.aws3.android;fillColor=#115193;gradientColor=none;strokeColor=#330000;fontColor=#00994D;" parent="vAZ1_Js3ERbQowNeJx3b-58" vertex="1">
          <mxGeometry x="58" y="245" width="34" height="43" as="geometry" />
        </mxCell>
        <mxCell id="vAZ1_Js3ERbQowNeJx3b-66" value="&lt;font style=&quot;font-size: 10px&quot;&gt;&lt;b&gt;PCF Router&lt;/b&gt;&lt;/font&gt;" style="outlineConnect=0;fontColor=#232F3E;gradientColor=none;fillColor=#5A30B5;strokeColor=none;dashed=0;verticalLabelPosition=bottom;verticalAlign=top;align=center;html=1;fontSize=12;fontStyle=0;aspect=fixed;pointerEvents=1;shape=mxgraph.aws4.router;" parent="vAZ1_Js3ERbQowNeJx3b-58" vertex="1">
          <mxGeometry x="34" y="34" width="35" height="35" as="geometry" />
        </mxCell>
        <mxCell id="vAZ1_Js3ERbQowNeJx3b-69" value="" style="fillColor=none;strokeColor=#147EBA;dashed=1;verticalAlign=top;fontStyle=0;fontColor=#147EBA;" parent="1" vertex="1">
          <mxGeometry x="526" width="169" height="82" as="geometry" />
        </mxCell>
        <mxCell id="yewCtgdkspyeEMJHnDZA-30" value="" style="edgeStyle=orthogonalEdgeStyle;rounded=0;orthogonalLoop=1;jettySize=auto;html=1;" edge="1" parent="1" source="vAZ1_Js3ERbQowNeJx3b-70" target="vAZ1_Js3ERbQowNeJx3b-4">
          <mxGeometry relative="1" as="geometry" />
        </mxCell>
        <mxCell id="vAZ1_Js3ERbQowNeJx3b-70" value="" style="fillColor=none;dashed=1;verticalAlign=top;fontStyle=0;fontColor=#147EBA;strokeColor=#00FF80;" parent="1" vertex="1">
          <mxGeometry x="531" y="117.25" width="169" height="116.5" as="geometry" />
        </mxCell>
        <mxCell id="mSUhU7dha5wKDlsOF0BO-14" value="&lt;font style=&quot;font-size: 12px&quot;&gt;active&lt;/font&gt;" style="edgeStyle=orthogonalEdgeStyle;rounded=0;orthogonalLoop=1;jettySize=auto;html=1;strokeColor=#330000;fontSize=15;fontColor=#00994D;exitX=0.5;exitY=1;exitDx=0;exitDy=0;" parent="1" source="mSUhU7dha5wKDlsOF0BO-2" target="vAZ1_Js3ERbQowNeJx3b-39" edge="1">
          <mxGeometry relative="1" as="geometry">
            <Array as="points">
              <mxPoint x="623" y="388" />
              <mxPoint x="623" y="388" />
            </Array>
          </mxGeometry>
        </mxCell>
        <mxCell id="mSUhU7dha5wKDlsOF0BO-3" value="" style="endArrow=classic;html=1;fontSize=15;fontColor=#00994D;exitX=0.456;exitY=1.037;exitDx=0;exitDy=0;exitPerimeter=0;" parent="1" edge="1">
          <mxGeometry width="50" height="50" relative="1" as="geometry">
            <mxPoint x="611.0640000000001" y="82.00399999999999" as="sourcePoint" />
            <mxPoint x="611" y="116.97" as="targetPoint" />
          </mxGeometry>
        </mxCell>
        <mxCell id="mSUhU7dha5wKDlsOF0BO-4" value="" style="endArrow=classic;html=1;fontSize=15;fontColor=#00994D;edgeStyle=orthogonalEdgeStyle;" parent="1" edge="1">
          <mxGeometry width="50" height="50" relative="1" as="geometry">
            <mxPoint x="561" y="234" as="sourcePoint" />
            <mxPoint x="210" y="276" as="targetPoint" />
            <Array as="points">
              <mxPoint x="561" y="253" />
              <mxPoint x="210" y="253" />
            </Array>
          </mxGeometry>
        </mxCell>
        <mxCell id="mSUhU7dha5wKDlsOF0BO-5" value="" style="endArrow=classic;html=1;fontSize=15;fontColor=#00994D;exitX=0.846;exitY=0.994;exitDx=0;exitDy=0;entryX=0.88;entryY=0;entryDx=0;entryDy=0;entryPerimeter=0;edgeStyle=orthogonalEdgeStyle;exitPerimeter=0;" parent="1" source="vAZ1_Js3ERbQowNeJx3b-70" target="mSUhU7dha5wKDlsOF0BO-2" edge="1">
          <mxGeometry width="50" height="50" relative="1" as="geometry">
            <mxPoint x="367.25" y="259.5" as="sourcePoint" />
            <mxPoint x="209.07799999999997" y="286.02600000000007" as="targetPoint" />
          </mxGeometry>
        </mxCell>
        <mxCell id="mSUhU7dha5wKDlsOF0BO-15" value="active" style="edgeStyle=orthogonalEdgeStyle;rounded=0;orthogonalLoop=1;jettySize=auto;html=1;strokeColor=#330000;fontSize=15;fontColor=#00994D;exitX=0.073;exitY=1.04;exitDx=0;exitDy=0;exitPerimeter=0;" parent="1" edge="1" source="mSUhU7dha5wKDlsOF0BO-2">
          <mxGeometry relative="1" as="geometry">
            <mxPoint x="410" y="373" as="sourcePoint" />
            <mxPoint x="212" y="420" as="targetPoint" />
            <Array as="points">
              <mxPoint x="212" y="376" />
            </Array>
          </mxGeometry>
        </mxCell>
        <mxCell id="mSUhU7dha5wKDlsOF0BO-16" value="&lt;font style=&quot;font-size: 12px&quot; color=&quot;#330000&quot;&gt;&lt;b&gt;GTM &lt;/b&gt;- Global Traffic&amp;nbsp;&lt;/font&gt;&lt;font color=&quot;#330000&quot;&gt;&lt;span style=&quot;font-size: 12px&quot;&gt;Manager&lt;/span&gt;&lt;/font&gt;" style="text;html=1;strokeColor=none;fillColor=none;align=center;verticalAlign=middle;whiteSpace=wrap;rounded=0;fontSize=15;fontColor=#00994D;" parent="1" vertex="1">
          <mxGeometry x="786" y="47" width="224" height="20" as="geometry" />
        </mxCell>
        <mxCell id="mSUhU7dha5wKDlsOF0BO-17" value="&lt;font style=&quot;font-size: 12px&quot; color=&quot;#330000&quot;&gt;&lt;b&gt;LTM &lt;/b&gt;- Local Traffic&amp;nbsp;&lt;/font&gt;&lt;font color=&quot;#330000&quot;&gt;&lt;span style=&quot;font-size: 12px&quot;&gt;Manager&lt;/span&gt;&lt;/font&gt;" style="text;html=1;strokeColor=none;fillColor=none;align=center;verticalAlign=middle;whiteSpace=wrap;rounded=0;fontSize=15;fontColor=#00994D;" parent="1" vertex="1">
          <mxGeometry x="783" y="83" width="224" height="20" as="geometry" />
        </mxCell>
        <mxCell id="mSUhU7dha5wKDlsOF0BO-18" value="&lt;font style=&quot;font-size: 12px&quot; color=&quot;#330000&quot;&gt;&lt;b&gt;AZ&amp;nbsp;&lt;/b&gt;- Availability Zones&lt;/font&gt;" style="text;html=1;strokeColor=none;fillColor=none;align=center;verticalAlign=middle;whiteSpace=wrap;rounded=0;fontSize=15;fontColor=#00994D;" parent="1" vertex="1">
          <mxGeometry x="804" y="121" width="154" height="20" as="geometry" />
        </mxCell>
        <mxCell id="mSUhU7dha5wKDlsOF0BO-28" value="" style="outlineConnect=0;dashed=0;verticalLabelPosition=bottom;verticalAlign=top;align=center;html=1;shape=mxgraph.aws3.android;gradientColor=none;strokeColor=#B5739D;fontSize=15;fontColor=#00994D;fillColor=#330000;" parent="1" vertex="1">
          <mxGeometry x="818" y="158" width="29" height="35" as="geometry" />
        </mxCell>
        <mxCell id="mSUhU7dha5wKDlsOF0BO-29" value="&lt;font color=&quot;#330000&quot;&gt;&lt;span style=&quot;font-size: 12px&quot;&gt;App Containers&lt;/span&gt;&lt;/font&gt;" style="text;html=1;strokeColor=none;fillColor=none;align=center;verticalAlign=middle;whiteSpace=wrap;rounded=0;fontSize=15;fontColor=#00994D;" parent="1" vertex="1">
          <mxGeometry x="849" y="165.5" width="117" height="20" as="geometry" />
        </mxCell>
        <mxCell id="yewCtgdkspyeEMJHnDZA-1" value="Durham PCF" style="verticalAlign=top;fontStyle=3;fontSize=15;fillColor=#fff2cc;strokeColor=#d6b656;" vertex="1" parent="1">
          <mxGeometry x="830" y="425" width="375" height="431" as="geometry" />
        </mxCell>
        <mxCell id="yewCtgdkspyeEMJHnDZA-2" value="" style="group" vertex="1" connectable="0" parent="1">
          <mxGeometry x="850" y="471" width="108" height="368" as="geometry" />
        </mxCell>
        <mxCell id="yewCtgdkspyeEMJHnDZA-3" value="AZ 1" style="fillColor=none;strokeColor=#147EBA;dashed=1;verticalAlign=top;fontStyle=1;fontColor=#147EBA;" vertex="1" parent="yewCtgdkspyeEMJHnDZA-2">
          <mxGeometry width="108" height="368" as="geometry" />
        </mxCell>
        <mxCell id="yewCtgdkspyeEMJHnDZA-4" value="Diego 1Â " style="fillColor=none;strokeColor=#147EBA;verticalAlign=top;fontStyle=0;fontColor=#147EBA;" vertex="1" parent="yewCtgdkspyeEMJHnDZA-2">
          <mxGeometry x="13.25" y="93" width="81.5" height="107" as="geometry" />
        </mxCell>
        <mxCell id="yewCtgdkspyeEMJHnDZA-5" value="Diego n" style="fillColor=none;strokeColor=#147EBA;verticalAlign=top;fontStyle=0;fontColor=#147EBA;" vertex="1" parent="yewCtgdkspyeEMJHnDZA-2">
          <mxGeometry x="13.25" y="214" width="81.5" height="107" as="geometry" />
        </mxCell>
        <mxCell id="yewCtgdkspyeEMJHnDZA-6" value="" style="outlineConnect=0;dashed=0;verticalLabelPosition=bottom;verticalAlign=top;align=center;html=1;shape=mxgraph.aws3.android;fillColor=#8CC64F;gradientColor=none;strokeColor=#330000;fontColor=#00994D;" vertex="1" parent="yewCtgdkspyeEMJHnDZA-2">
          <mxGeometry x="19" y="130" width="28" height="44" as="geometry" />
        </mxCell>
        <mxCell id="yewCtgdkspyeEMJHnDZA-7" value="" style="outlineConnect=0;dashed=0;verticalLabelPosition=bottom;verticalAlign=top;align=center;html=1;shape=mxgraph.aws3.android;fillColor=#EE472A;gradientColor=none;strokeColor=#330000;fontColor=#00994D;" vertex="1" parent="yewCtgdkspyeEMJHnDZA-2">
          <mxGeometry x="56" y="133" width="30" height="39" as="geometry" />
        </mxCell>
        <mxCell id="yewCtgdkspyeEMJHnDZA-8" value="" style="outlineConnect=0;dashed=0;verticalLabelPosition=bottom;verticalAlign=top;align=center;html=1;shape=mxgraph.aws3.android;fillColor=#FFD44F;gradientColor=none;strokeColor=#330000;fontColor=#00994D;" vertex="1" parent="yewCtgdkspyeEMJHnDZA-2">
          <mxGeometry x="21" y="246" width="31" height="41" as="geometry" />
        </mxCell>
        <mxCell id="yewCtgdkspyeEMJHnDZA-9" value="" style="outlineConnect=0;dashed=0;verticalLabelPosition=bottom;verticalAlign=top;align=center;html=1;shape=mxgraph.aws3.android;fillColor=#115193;gradientColor=none;strokeColor=#330000;fontColor=#00994D;" vertex="1" parent="yewCtgdkspyeEMJHnDZA-2">
          <mxGeometry x="58" y="245" width="34" height="43" as="geometry" />
        </mxCell>
        <mxCell id="yewCtgdkspyeEMJHnDZA-10" value="&lt;font style=&quot;font-size: 10px&quot;&gt;&lt;b&gt;PCF Router&lt;/b&gt;&lt;/font&gt;" style="outlineConnect=0;fontColor=#232F3E;gradientColor=none;fillColor=#5A30B5;strokeColor=none;dashed=0;verticalLabelPosition=bottom;verticalAlign=top;align=center;html=1;fontSize=12;fontStyle=0;aspect=fixed;pointerEvents=1;shape=mxgraph.aws4.router;" vertex="1" parent="yewCtgdkspyeEMJHnDZA-2">
          <mxGeometry x="34" y="34" width="35" height="35" as="geometry" />
        </mxCell>
        <mxCell id="yewCtgdkspyeEMJHnDZA-11" value="" style="group" vertex="1" connectable="0" parent="1">
          <mxGeometry x="966" y="471" width="108" height="368" as="geometry" />
        </mxCell>
        <mxCell id="yewCtgdkspyeEMJHnDZA-12" value="AZ 2" style="fillColor=none;strokeColor=#147EBA;dashed=1;verticalAlign=top;fontStyle=1;fontColor=#147EBA;" vertex="1" parent="yewCtgdkspyeEMJHnDZA-11">
          <mxGeometry width="108" height="368" as="geometry" />
        </mxCell>
        <mxCell id="yewCtgdkspyeEMJHnDZA-13" value="Diego 2Â " style="fillColor=none;strokeColor=#147EBA;verticalAlign=top;fontStyle=0;fontColor=#147EBA;" vertex="1" parent="yewCtgdkspyeEMJHnDZA-11">
          <mxGeometry x="13.25" y="93" width="81.5" height="107" as="geometry" />
        </mxCell>
        <mxCell id="yewCtgdkspyeEMJHnDZA-14" value="Diego n-1" style="fillColor=none;strokeColor=#147EBA;verticalAlign=top;fontStyle=0;fontColor=#147EBA;" vertex="1" parent="yewCtgdkspyeEMJHnDZA-11">
          <mxGeometry x="13.25" y="214" width="81.5" height="107" as="geometry" />
        </mxCell>
        <mxCell id="yewCtgdkspyeEMJHnDZA-15" value="" style="outlineConnect=0;dashed=0;verticalLabelPosition=bottom;verticalAlign=top;align=center;html=1;shape=mxgraph.aws3.android;fillColor=#8CC64F;gradientColor=none;strokeColor=#330000;fontColor=#00994D;" vertex="1" parent="yewCtgdkspyeEMJHnDZA-11">
          <mxGeometry x="19" y="130" width="28" height="44" as="geometry" />
        </mxCell>
        <mxCell id="yewCtgdkspyeEMJHnDZA-16" value="" style="outlineConnect=0;dashed=0;verticalLabelPosition=bottom;verticalAlign=top;align=center;html=1;shape=mxgraph.aws3.android;fillColor=#EE472A;gradientColor=none;strokeColor=#330000;fontColor=#00994D;" vertex="1" parent="yewCtgdkspyeEMJHnDZA-11">
          <mxGeometry x="56" y="133" width="30" height="39" as="geometry" />
        </mxCell>
        <mxCell id="yewCtgdkspyeEMJHnDZA-17" value="" style="outlineConnect=0;dashed=0;verticalLabelPosition=bottom;verticalAlign=top;align=center;html=1;shape=mxgraph.aws3.android;fillColor=#FFD44F;gradientColor=none;strokeColor=#330000;fontColor=#00994D;" vertex="1" parent="yewCtgdkspyeEMJHnDZA-11">
          <mxGeometry x="21" y="246" width="31" height="41" as="geometry" />
        </mxCell>
        <mxCell id="yewCtgdkspyeEMJHnDZA-18" value="" style="outlineConnect=0;dashed=0;verticalLabelPosition=bottom;verticalAlign=top;align=center;html=1;shape=mxgraph.aws3.android;fillColor=#115193;gradientColor=none;strokeColor=#330000;fontColor=#00994D;" vertex="1" parent="yewCtgdkspyeEMJHnDZA-11">
          <mxGeometry x="58" y="245" width="34" height="43" as="geometry" />
        </mxCell>
        <mxCell id="yewCtgdkspyeEMJHnDZA-19" value="&lt;font style=&quot;font-size: 10px&quot;&gt;&lt;b&gt;PCF Router&lt;/b&gt;&lt;/font&gt;" style="outlineConnect=0;fontColor=#232F3E;gradientColor=none;fillColor=#5A30B5;strokeColor=none;dashed=0;verticalLabelPosition=bottom;verticalAlign=top;align=center;html=1;fontSize=12;fontStyle=0;aspect=fixed;pointerEvents=1;shape=mxgraph.aws4.router;" vertex="1" parent="yewCtgdkspyeEMJHnDZA-11">
          <mxGeometry x="34" y="34" width="35" height="35" as="geometry" />
        </mxCell>
        <mxCell id="yewCtgdkspyeEMJHnDZA-20" value="" style="group" vertex="1" connectable="0" parent="1">
          <mxGeometry x="1080" y="470" width="108" height="368" as="geometry" />
        </mxCell>
        <mxCell id="yewCtgdkspyeEMJHnDZA-21" value="AZ 3" style="fillColor=none;strokeColor=#147EBA;dashed=1;verticalAlign=top;fontStyle=1;fontColor=#147EBA;" vertex="1" parent="yewCtgdkspyeEMJHnDZA-20">
          <mxGeometry width="108" height="368" as="geometry" />
        </mxCell>
        <mxCell id="yewCtgdkspyeEMJHnDZA-22" value="Diego 13" style="fillColor=none;strokeColor=#147EBA;verticalAlign=top;fontStyle=0;fontColor=#147EBA;" vertex="1" parent="yewCtgdkspyeEMJHnDZA-20">
          <mxGeometry x="13.25" y="93" width="81.5" height="107" as="geometry" />
        </mxCell>
        <mxCell id="yewCtgdkspyeEMJHnDZA-23" value="Diego n-2" style="fillColor=none;strokeColor=#147EBA;verticalAlign=top;fontStyle=0;fontColor=#147EBA;" vertex="1" parent="yewCtgdkspyeEMJHnDZA-20">
          <mxGeometry x="13.25" y="214" width="81.5" height="107" as="geometry" />
        </mxCell>
        <mxCell id="yewCtgdkspyeEMJHnDZA-24" value="" style="outlineConnect=0;dashed=0;verticalLabelPosition=bottom;verticalAlign=top;align=center;html=1;shape=mxgraph.aws3.android;fillColor=#8CC64F;gradientColor=none;strokeColor=#330000;fontColor=#00994D;" vertex="1" parent="yewCtgdkspyeEMJHnDZA-20">
          <mxGeometry x="19" y="130" width="28" height="44" as="geometry" />
        </mxCell>
        <mxCell id="yewCtgdkspyeEMJHnDZA-25" value="" style="outlineConnect=0;dashed=0;verticalLabelPosition=bottom;verticalAlign=top;align=center;html=1;shape=mxgraph.aws3.android;fillColor=#EE472A;gradientColor=none;strokeColor=#330000;fontColor=#00994D;" vertex="1" parent="yewCtgdkspyeEMJHnDZA-20">
          <mxGeometry x="56" y="133" width="30" height="39" as="geometry" />
        </mxCell>
        <mxCell id="yewCtgdkspyeEMJHnDZA-26" value="" style="outlineConnect=0;dashed=0;verticalLabelPosition=bottom;verticalAlign=top;align=center;html=1;shape=mxgraph.aws3.android;fillColor=#FFD44F;gradientColor=none;strokeColor=#330000;fontColor=#00994D;" vertex="1" parent="yewCtgdkspyeEMJHnDZA-20">
          <mxGeometry x="21" y="246" width="31" height="41" as="geometry" />
        </mxCell>
        <mxCell id="yewCtgdkspyeEMJHnDZA-27" value="" style="outlineConnect=0;dashed=0;verticalLabelPosition=bottom;verticalAlign=top;align=center;html=1;shape=mxgraph.aws3.android;fillColor=#115193;gradientColor=none;strokeColor=#330000;fontColor=#00994D;" vertex="1" parent="yewCtgdkspyeEMJHnDZA-20">
          <mxGeometry x="58" y="245" width="34" height="43" as="geometry" />
        </mxCell>
        <mxCell id="yewCtgdkspyeEMJHnDZA-28" value="&lt;font style=&quot;font-size: 10px&quot;&gt;&lt;b&gt;PCF Router&lt;/b&gt;&lt;/font&gt;" style="outlineConnect=0;fontColor=#232F3E;gradientColor=none;fillColor=#5A30B5;strokeColor=none;dashed=0;verticalLabelPosition=bottom;verticalAlign=top;align=center;html=1;fontSize=12;fontStyle=0;aspect=fixed;pointerEvents=1;shape=mxgraph.aws4.router;" vertex="1" parent="yewCtgdkspyeEMJHnDZA-20">
          <mxGeometry x="34" y="34" width="35" height="35" as="geometry" />
        </mxCell>
        <mxCell id="yewCtgdkspyeEMJHnDZA-29" value="&lt;b&gt;PCF LTM in PC1&lt;/b&gt;" style="outlineConnect=0;dashed=0;verticalLabelPosition=bottom;verticalAlign=top;align=center;html=1;shape=mxgraph.aws3.application_load_balancer;gradientColor=none;fillColor=#FF9933;" vertex="1" parent="1">
          <mxGeometry x="181" y="286" width="60" height="60" as="geometry" />
        </mxCell>
        <mxCell id="yewCtgdkspyeEMJHnDZA-32" value="&lt;font style=&quot;font-size: 12px&quot;&gt;active&lt;/font&gt;" style="edgeStyle=orthogonalEdgeStyle;rounded=0;orthogonalLoop=1;jettySize=auto;html=1;strokeColor=#330000;fontSize=15;fontColor=#00994D;exitX=0.884;exitY=1.04;exitDx=0;exitDy=0;exitPerimeter=0;" edge="1" parent="1" source="mSUhU7dha5wKDlsOF0BO-2">
          <mxGeometry relative="1" as="geometry">
            <Array as="points">
              <mxPoint x="995" y="421" />
            </Array>
            <mxPoint x="747.5" y="382" as="sourcePoint" />
            <mxPoint x="995" y="421" as="targetPoint" />
          </mxGeometry>
        </mxCell>
      </root>
    </mxGraphModel>
  </diagram>
</mxfile>
